<?xml version="1.0" encoding="UTF-8" standalone="no"?>
<svg width="800" height="400" viewBox="0 0 800 400" fill="none" xmlns="http://www.w3.org/2000/svg">
  <rect width="800" height="400" fill="#F7FAFC"/>
  
  <!-- Building outline -->
  <path d="M150 320H650V100H150V320Z" stroke="#2563EB" stroke-width="2"/>
  
  <!-- Windows -->
  <rect x="200" y="150" width="40" height="60" stroke="#2563EB" stroke-width="2"/>
  <rect x="260" y="150" width="40" height="60" stroke="#2563EB" stroke-width="2"/>
  <rect x="320" y="150" width="40" height="60" stroke="#2563EB" stroke-width="2"/>
  <rect x="440" y="150" width="40" height="60" stroke="#2563EB" stroke-width="2"/>
  <rect x="500" y="150" width="40" height="60" stroke="#2563EB" stroke-width="2"/>
  <rect x="560" y="150" width="40" height="60" stroke="#2563EB" stroke-width="2"/>
  
  <!-- Door -->
  <rect x="380" y="230" width="40" height="90" stroke="#2563EB" stroke-width="2"/>
  
  <!-- Roof -->
  <path d="M130 100L400 30L670 100" stroke="#2563EB" stroke-width="2"/>
  
  <!-- Dimension lines -->
  <line x1="150" y1="350" x2="650" y2="350" stroke="#94A3B8" stroke-width="1" stroke-dasharray="4 2"/>
  <line x1="150" y1="345" x2="150" y2="355" stroke="#94A3B8" stroke-width="1"/>
  <line x1="650" y1="345" x2="650" y2="355" stroke="#94A3B8" stroke-width="1"/>
  <text x="400" y="370" text-anchor="middle" font-size="12" fill="#334155" font-family="Arial">500 m</text>
  
  <!-- Vertical dimension -->
  <line x1="680" y1="100" x2="680" y2="320" stroke="#94A3B8" stroke-width="1" stroke-dasharray="4 2"/>
  <line x1="675" y1="100" x2="685" y2="100" stroke="#94A3B8" stroke-width="1"/>
  <line x1="675" y1="320" x2="685" y2="320" stroke="#94A3B8" stroke-width="1"/>
  <text x="700" y="210" text-anchor="middle" font-size="12" fill="#334155" font-family="Arial" transform="rotate(90, 700, 210)">220 m</text>
  
  <!-- Cursor and animation hint -->
  <circle cx="450" cy="200" r="5" fill="#EF4444"/>
  
  <!-- Grid lines (subtle) -->
  <g opacity="0.1">
    <line x1="0" y1="50" x2="800" y2="50" stroke="#CBD5E1" stroke-width="1"/>
    <line x1="0" y1="100" x2="800" y2="100" stroke="#CBD5E1" stroke-width="1"/>
    <line x1="0" y1="150" x2="800" y2="150" stroke="#CBD5E1" stroke-width="1"/>
    <line x1="0" y1="200" x2="800" y2="200" stroke="#CBD5E1" stroke-width="1"/>
    <line x1="0" y1="250" x2="800" y2="250" stroke="#CBD5E1" stroke-width="1"/>
    <line x1="0" y1="300" x2="800" y2="300" stroke="#CBD5E1" stroke-width="1"/>
    <line x1="0" y1="350" x2="800" y2="350" stroke="#CBD5E1" stroke-width="1"/>
    
    <line x1="100" y1="0" x2="100" y2="400" stroke="#CBD5E1" stroke-width="1"/>
    <line x1="200" y1="0" x2="200" y2="400" stroke="#CBD5E1" stroke-width="1"/>
    <line x1="300" y1="0" x2="300" y2="400" stroke="#CBD5E1" stroke-width="1"/>
    <line x1="400" y1="0" x2="400" y2="400" stroke="#CBD5E1" stroke-width="1"/>
    <line x1="500" y1="0" x2="500" y2="400" stroke="#CBD5E1" stroke-width="1"/>
    <line x1="600" y1="0" x2="600" y2="400" stroke="#CBD5E1" stroke-width="1"/>
    <line x1="700" y1="0" x2="700" y2="400" stroke="#CBD5E1" stroke-width="1"/>
  </g>
</svg>