<?xml version="1.0" encoding="UTF-8"?>
<svg width="800" height="600" viewBox="0 0 800 600" fill="none" xmlns="http://www.w3.org/2000/svg">
  <!-- Grid Background -->
  <rect width="800" height="600" fill="#f8fafc"/>
  <g opacity="0.2">
    <path d="M0 20H800" stroke="#94a3b8" stroke-width="0.5"/>
    <path d="M0 40H800" stroke="#94a3b8" stroke-width="0.5"/>
    <path d="M0 60H800" stroke="#94a3b8" stroke-width="0.5"/>
    <path d="M0 80H800" stroke="#94a3b8" stroke-width="0.5"/>
    <path d="M0 100H800" stroke="#94a3b8" stroke-width="0.5"/>
    <path d="M0 120H800" stroke="#94a3b8" stroke-width="0.5"/>
    <path d="M0 140H800" stroke="#94a3b8" stroke-width="0.5"/>
    <path d="M0 160H800" stroke="#94a3b8" stroke-width="0.5"/>
    <path d="M0 180H800" stroke="#94a3b8" stroke-width="0.5"/>
    <path d="M0 200H800" stroke="#94a3b8" stroke-width="0.5"/>
    <path d="M0 220H800" stroke="#94a3b8" stroke-width="0.5"/>
    <path d="M0 240H800" stroke="#94a3b8" stroke-width="0.5"/>
    <path d="M0 260H800" stroke="#94a3b8" stroke-width="0.5"/>
    <path d="M0 280H800" stroke="#94a3b8" stroke-width="0.5"/>
    <path d="M0 300H800" stroke="#94a3b8" stroke-width="0.5"/>
    <path d="M0 320H800" stroke="#94a3b8" stroke-width="0.5"/>
    <path d="M0 340H800" stroke="#94a3b8" stroke-width="0.5"/>
    <path d="M0 360H800" stroke="#94a3b8" stroke-width="0.5"/>
    <path d="M0 380H800" stroke="#94a3b8" stroke-width="0.5"/>
    <path d="M0 400H800" stroke="#94a3b8" stroke-width="0.5"/>
    <path d="M0 420H800" stroke="#94a3b8" stroke-width="0.5"/>
    <path d="M0 440H800" stroke="#94a3b8" stroke-width="0.5"/>
    <path d="M0 460H800" stroke="#94a3b8" stroke-width="0.5"/>
    <path d="M0 480H800" stroke="#94a3b8" stroke-width="0.5"/>
    <path d="M0 500H800" stroke="#94a3b8" stroke-width="0.5"/>
    <path d="M0 520H800" stroke="#94a3b8" stroke-width="0.5"/>
    <path d="M0 540H800" stroke="#94a3b8" stroke-width="0.5"/>
    <path d="M0 560H800" stroke="#94a3b8" stroke-width="0.5"/>
    <path d="M0 580H800" stroke="#94a3b8" stroke-width="0.5"/>
    <path d="M0 600H800" stroke="#94a3b8" stroke-width="0.5"/>
    
    <path d="M20 0V600" stroke="#94a3b8" stroke-width="0.5"/>
    <path d="M40 0V600" stroke="#94a3b8" stroke-width="0.5"/>
    <path d="M60 0V600" stroke="#94a3b8" stroke-width="0.5"/>
    <path d="M80 0V600" stroke="#94a3b8" stroke-width="0.5"/>
    <path d="M100 0V600" stroke="#94a3b8" stroke-width="0.5"/>
    <path d="M120 0V600" stroke="#94a3b8" stroke-width="0.5"/>
    <path d="M140 0V600" stroke="#94a3b8" stroke-width="0.5"/>
    <path d="M160 0V600" stroke="#94a3b8" stroke-width="0.5"/>
    <path d="M180 0V600" stroke="#94a3b8" stroke-width="0.5"/>
    <path d="M200 0V600" stroke="#94a3b8" stroke-width="0.5"/>
    <path d="M220 0V600" stroke="#94a3b8" stroke-width="0.5"/>
    <path d="M240 0V600" stroke="#94a3b8" stroke-width="0.5"/>
    <path d="M260 0V600" stroke="#94a3b8" stroke-width="0.5"/>
    <path d="M280 0V600" stroke="#94a3b8" stroke-width="0.5"/>
    <path d="M300 0V600" stroke="#94a3b8" stroke-width="0.5"/>
    <path d="M320 0V600" stroke="#94a3b8" stroke-width="0.5"/>
    <path d="M340 0V600" stroke="#94a3b8" stroke-width="0.5"/>
    <path d="M360 0V600" stroke="#94a3b8" stroke-width="0.5"/>
    <path d="M380 0V600" stroke="#94a3b8" stroke-width="0.5"/>
    <path d="M400 0V600" stroke="#94a3b8" stroke-width="0.5"/>
    <path d="M420 0V600" stroke="#94a3b8" stroke-width="0.5"/>
    <path d="M440 0V600" stroke="#94a3b8" stroke-width="0.5"/>
    <path d="M460 0V600" stroke="#94a3b8" stroke-width="0.5"/>
    <path d="M480 0V600" stroke="#94a3b8" stroke-width="0.5"/>
    <path d="M500 0V600" stroke="#94a3b8" stroke-width="0.5"/>
    <path d="M520 0V600" stroke="#94a3b8" stroke-width="0.5"/>
    <path d="M540 0V600" stroke="#94a3b8" stroke-width="0.5"/>
    <path d="M560 0V600" stroke="#94a3b8" stroke-width="0.5"/>
    <path d="M580 0V600" stroke="#94a3b8" stroke-width="0.5"/>
    <path d="M600 0V600" stroke="#94a3b8" stroke-width="0.5"/>
    <path d="M620 0V600" stroke="#94a3b8" stroke-width="0.5"/>
    <path d="M640 0V600" stroke="#94a3b8" stroke-width="0.5"/>
    <path d="M660 0V600" stroke="#94a3b8" stroke-width="0.5"/>
    <path d="M680 0V600" stroke="#94a3b8" stroke-width="0.5"/>
    <path d="M700 0V600" stroke="#94a3b8" stroke-width="0.5"/>
    <path d="M720 0V600" stroke="#94a3b8" stroke-width="0.5"/>
    <path d="M740 0V600" stroke="#94a3b8" stroke-width="0.5"/>
    <path d="M760 0V600" stroke="#94a3b8" stroke-width="0.5"/>
    <path d="M780 0V600" stroke="#94a3b8" stroke-width="0.5"/>
    <path d="M800 0V600" stroke="#94a3b8" stroke-width="0.5"/>
  </g>
  
  <!-- Building Outline -->
  <path d="M200 300L600 300L600 150L400 50L200 150L200 300Z" stroke="#0066cc" stroke-width="3" fill="#e0f2fe" fill-opacity="0.5"/>
  
  <!-- Building Interior Lines -->
  <path d="M200 150L600 150" stroke="#0066cc" stroke-width="2"/>
  <path d="M400 50L400 300" stroke="#0066cc" stroke-width="2"/>
  <path d="M300 150L300 300" stroke="#0066cc" stroke-width="2" stroke-dasharray="5,5"/>
  <path d="M500 150L500 300" stroke="#0066cc" stroke-width="2" stroke-dasharray="5,5"/>
  
  <!-- Windows -->
  <rect x="250" y="200" width="50" height="50" fill="#bae6fd" stroke="#0066cc"/>
  <rect x="450" y="200" width="50" height="50" fill="#bae6fd" stroke="#0066cc"/>
  
  <!-- Door -->
  <rect x="375" y="230" width="50" height="70" fill="#1e40af" stroke="#0066cc"/>
  
  <!-- Measurements -->
  <path d="M180 310L620 310" stroke="#ef4444" stroke-width="1"/>
  <path d="M180 310L180 315" stroke="#ef4444" stroke-width="1"/>
  <path d="M620 310L620 315" stroke="#ef4444" stroke-width="1"/>
  <text x="400" y="330" font-family="Arial" font-size="14" text-anchor="middle" fill="#ef4444">400 m</text>
  
  <path d="M190 140L190 310" stroke="#ef4444" stroke-width="1"/>
  <path d="M190 140L185 140" stroke="#ef4444" stroke-width="1"/>
  <path d="M190 310L185 310" stroke="#ef4444" stroke-width="1"/>
  <text x="165" y="225" font-family="Arial" font-size="14" text-anchor="middle" fill="#ef4444" transform="rotate(-90, 165, 225)">170 m</text>
  
  <!-- Roof angle indicator -->
  <path d="M420 45C420 45 440 60 440 60" stroke="#ef4444" stroke-width="1"/>
  <text x="450" y="55" font-family="Arial" font-size="12" fill="#ef4444">30°</text>
  
  <!-- Coordinates -->
  <circle cx="200" cy="150" r="4" fill="#ef4444"/>
  <text x="180" y="140" font-family="Arial" font-size="10" fill="#ef4444">(0,0)</text>
  
  <circle cx="600" cy="150" r="4" fill="#ef4444"/>
  <text x="610" y="140" font-family="Arial" font-size="10" fill="#ef4444">(400,0)</text>
  
  <circle cx="400" cy="50" r="4" fill="#ef4444"/>
  <text x="410" y="40" font-family="Arial" font-size="10" fill="#ef4444">(200,100)</text>
  
  <!-- Status Bar Simulation -->
  <rect x="50" y="500" width="700" height="30" rx="5" fill="#f1f5f9" stroke="#cbd5e1"/>
  <text x="70" y="520" font-family="Arial" font-size="12" fill="#475569">X: 245.00</text>
  <text x="150" y="520" font-family="Arial" font-size="12" fill="#475569">Y: 185.00</text>
  <text x="230" y="520" font-family="Arial" font-size="12" fill="#475569">Zoom: 1.25</text>
  <text x="320" y="520" font-family="Arial" font-size="12" fill="#475569">Grid: 20 m</text>
  <text x="410" y="520" font-family="Arial" font-size="12" fill="#475569">Tool: Line</text>
  <text x="500" y="520" font-family="Arial" font-size="12" fill="#475569">Snap: ON</text>
  <text x="580" y="520" font-family="Arial" font-size="12" fill="#475569">Ortho: ON</text>
  
  <!-- ArchiFrost Watermark -->
  <text x="680" y="520" font-family="Arial" font-size="14" font-weight="bold" fill="#0066cc">ArchiFrost</text>
</svg>