<?xml version="1.0" encoding="UTF-8" standalone="no"?>
<svg width="150" height="30" viewBox="0 0 150 30" fill="none" xmlns="http://www.w3.org/2000/svg">
  <path d="M0 4C0 1.79086 1.79086 0 4 0H26C28.2091 0 30 1.79086 30 4V26C30 28.2091 28.2091 30 26 30H4C1.79086 30 0 28.2091 0 26V4Z" fill="#2563EB"/>
  <path d="M5 15L10 7L15 15L20 7L25 15" stroke="white" stroke-width="2" stroke-linecap="round" stroke-linejoin="round"/>
  <path d="M40 8H45L51 20H47L46 18H39L38 20H34L40 8ZM44.5 15L42.5 11L40.5 15H44.5Z" fill="#2563EB"/>
  <path d="M55 8H59V17C59 17.7333 59.1833 18.2 59.55 18.5C59.9167 18.8 60.4167 18.95 61.05 18.95C61.6833 18.95 62.1833 18.8 62.55 18.5C62.9167 18.2 63.1 17.7333 63.1 17V8H67.1V17C67.1 18.0667 66.9 18.9833 66.5 19.75C66.1 20.5167 65.5333 21.1 64.8 21.5C64.0667 21.9 63.2 22.1 62.2 22.1C61.2 22.1 60.3333 21.9 59.6 21.5C58.8667 21.1 58.3 20.5167 57.9 19.75C57.5 18.9833 57.3 18.0667 57.3 17V8H55V8Z" fill="#2563EB"/>
  <path d="M75 8H79.4L84.7 16V8H88.7V22H84.3L79 14V22H75V8Z" fill="#2563EB"/>
  <path d="M98 8H102V22H98V8Z" fill="#2563EB"/>
  <path d="M110 8H114L120 20H116L115 18H108L107 20H103L110 8ZM114.5 15L112.5 11L110.5 15H114.5Z" fill="#2563EB"/>
  <path d="M122 8H126V19H133V22H122V8Z" fill="#2563EB"/>
  <path d="M135 8H139V19H146V22H135V8Z" fill="#2563EB"/>
  <path d="M148 8H152V22H148V8Z" fill="#2563EB"/>
</svg>